<?xml version="1.0" encoding="utf-8"?>
<!-- Generator: Adobe Illustrator 16.0.4, SVG Export Plug-In . SVG Version: 6.00 Build 0)  -->
<!DOCTYPE svg PUBLIC "-//W3C//DTD SVG 1.1//EN" "http://www.w3.org/Graphics/SVG/1.1/DTD/svg11.dtd">
<svg version="1.1" id="Capa_1" xmlns="http://www.w3.org/2000/svg" xmlns:xlink="http://www.w3.org/1999/xlink" x="0px" y="0px"
	 width="64px" height="64px" viewBox="0 0 64 64" enable-background="new 0 0 64 64" xml:space="preserve">
<g>
	<path d="M50.297,12.549H12.976c-0.781,0-1.418,0.637-1.418,1.418v37.321c0,0.782,0.637,1.418,1.418,1.418h37.321
		c0.781,0,1.418-0.636,1.418-1.418V13.967C51.715,13.186,51.078,12.549,50.297,12.549z M50.297,51.288H12.976V13.967h37.321V51.288z
		"/>
	<path d="M16.732,48.659h29.807c0.781,0,1.417-0.636,1.417-1.417v-25.18c0-0.781-0.636-1.417-1.417-1.417H16.732
		c-0.781,0-1.417,0.637-1.417,1.418v25.179C15.315,48.023,15.951,48.659,16.732,48.659z M16.733,22.062h29.806v25.179H16.732
		L16.733,22.062z"/>
	<path d="M33.035,18.95h1.691c0.782,0,1.418-0.636,1.418-1.417v-1.131c0-0.781-0.636-1.417-1.418-1.417h-1.691
		c-0.781,0-1.417,0.636-1.417,1.417v1.131C31.618,18.315,32.254,18.95,33.035,18.95z M33.036,16.402h1.69v1.131h-1.691
		L33.036,16.402z"/>
	<path d="M38.893,18.95h1.691c0.781,0,1.418-0.636,1.418-1.417v-1.131c0-0.781-0.637-1.417-1.418-1.417h-1.691
		c-0.781,0-1.418,0.636-1.418,1.417v1.131C37.475,18.315,38.109,18.95,38.893,18.95z M38.893,16.402h1.691v1.131h-1.691V16.402z"/>
	<path d="M44.748,18.95h1.691c0.781,0,1.418-0.636,1.418-1.417v-1.131c0-0.781-0.637-1.417-1.418-1.417h-1.691
		c-0.781,0-1.418,0.636-1.418,1.417v1.131C43.33,18.315,43.967,18.95,44.748,18.95z M44.748,16.402h1.691v1.131h-1.691V16.402z"/>
</g>
</svg>
