<?xml version="1.0" encoding="utf-8"?>
<!-- Generator: Adobe Illustrator 16.0.4, SVG Export Plug-In . SVG Version: 6.00 Build 0)  -->
<!DOCTYPE svg PUBLIC "-//W3C//DTD SVG 1.1//EN" "http://www.w3.org/Graphics/SVG/1.1/DTD/svg11.dtd">
<svg version="1.1" id="Capa_1" xmlns="http://www.w3.org/2000/svg" xmlns:xlink="http://www.w3.org/1999/xlink" x="0px" y="0px"
	 width="64px" height="64px" viewBox="0 0 64 64" enable-background="new 0 0 64 64" xml:space="preserve">
<g>
	<path d="M32,19.037c-7.699,0-13.963,6.264-13.963,13.963S24.301,46.963,32,46.963S45.963,40.699,45.963,33S39.699,19.037,32,19.037
		z M32,45.463c-6.872,0-12.463-5.591-12.463-12.463S25.128,20.537,32,20.537S44.463,26.128,44.463,33S38.872,45.463,32,45.463z"/>
	<path d="M52.096,32.349C51.748,21.553,42.879,12.871,32,12.871c-11.099,0-20.129,9.03-20.129,20.129
		c0,11.1,9.03,20.129,20.129,20.129c0.413,0,0.75-0.337,0.75-0.75s-0.337-0.75-0.75-0.75c-10.272,0-18.629-8.355-18.629-18.629
		c0-10.273,8.357-18.629,18.629-18.629c10.09,0,18.312,8.067,18.602,18.089c-0.865,0.363-1.477,1.22-1.477,2.216
		c0,1.324,1.078,2.402,2.402,2.402S53.93,36,53.93,34.676C53.93,33.549,53.145,32.605,52.096,32.349z M51.527,35.578
		c-0.498,0-0.902-0.405-0.902-0.902c0-0.496,0.404-0.902,0.902-0.902c0.496,0,0.902,0.406,0.902,0.902
		C52.43,35.173,52.023,35.578,51.527,35.578z"/>
</g>
</svg>
