<?xml version="1.0" encoding="utf-8"?>
<!-- Generator: Adobe Illustrator 16.0.4, SVG Export Plug-In . SVG Version: 6.00 Build 0)  -->
<!DOCTYPE svg PUBLIC "-//W3C//DTD SVG 1.1//EN" "http://www.w3.org/Graphics/SVG/1.1/DTD/svg11.dtd">
<svg version="1.1" id="Capa_1" xmlns="http://www.w3.org/2000/svg" xmlns:xlink="http://www.w3.org/1999/xlink" x="0px" y="0px"
	 width="64px" height="64px" viewBox="0 0 64 64" enable-background="new 0 0 64 64" xml:space="preserve">
<g>
	<path d="M49.02,12.875H11.697c-0.92,0-1.668,0.748-1.668,1.668v37.321c0,0.92,0.748,1.668,1.668,1.668h37.321
		c0.92,0,1.668-0.748,1.668-1.668V14.543C50.686,13.623,49.938,12.875,49.02,12.875z M48.77,51.614H11.947V14.793H48.77V51.614z"/>
	<path d="M15.454,49.484h29.808c0.918,0,1.666-0.748,1.666-1.668V22.639c0-0.92-0.748-1.668-1.666-1.668H15.454
		c-0.919,0-1.667,0.748-1.667,1.668v25.179C13.787,48.736,14.535,49.484,15.454,49.484z M45.012,22.888v11.469l-1.003-2.922
		c-0.161-0.471-0.517-0.783-0.95-0.838c-0.439-0.059-0.854,0.161-1.129,0.588l-4.479,6.991l-4.41-14.629
		c-0.1-0.33-0.262-0.534-0.43-0.659H45.012z M15.706,22.889h15.769c-0.173,0.132-0.338,0.35-0.427,0.715l-4.811,19.849
		l-5.296-13.231c-0.177-0.447-0.525-0.737-0.955-0.798c-0.051-0.008-0.101-0.011-0.152-0.011c-0.371,0-0.73,0.186-0.983,0.512
		l-3.145,4.046V22.889z M15.704,36.788l3.964-5.098l5.739,14.348c0.286,0.717,0.839,0.772,1.002,0.772l0.064-0.004
		c0.174-0.011,0.756-0.108,0.953-0.912l4.7-19.388l4.032,13.382c0.227,0.742,0.814,0.854,0.923,0.867
		c0.213,0.033,0.749,0.035,1.144-0.583l4.527-7.065l2.216,6.465c0.013,0.033,0.026,0.062,0.042,0.088v7.906H15.704V36.788z"/>
	<path d="M25,31.5c1.792,0,3.25-1.458,3.25-3.25S26.792,25,25,25s-3.25,1.458-3.25,3.25S23.208,31.5,25,31.5z M25,26.75
		c0.827,0,1.5,0.673,1.5,1.5s-0.673,1.5-1.5,1.5s-1.5-0.673-1.5-1.5S24.173,26.75,25,26.75z"/>
</g>
</svg>
