<svg xmlns="http://www.w3.org/2000/svg" width="138.2" height="150.6" viewBox="0 0 138.2 150.6"><path fill="none" stroke="#2E2C4C" stroke-width="5.46" stroke-miterlimit="10" d="M107.7 75c0 39.9-17.4 72.3-38.9 72.3C47.4 147.3 30 114.9 30 75S47.4 2.7 68.8 2.7c21.5 0 38.9 32.4 38.9 72.3z"/><path fill="none" stroke="#2E2C4C" stroke-width="5.46" stroke-miterlimit="10" d="M91.7 106.4c-32.2 23.5-68.6 28.5-81.3 11.2s3.2-50.5 35.4-74 68.6-28.5 81.3-11.2-3.1 50.5-35.4 74z"/><path fill="none" stroke="#2E2C4C" stroke-width="5.46" stroke-miterlimit="10" d="M50.2 109.1C15.2 90-4.9 59.2 5.4 40.3c10.3-18.8 47-18.6 82 .5s55 49.9 44.8 68.8c-10.3 18.9-47 18.7-82-.5z"/><path fill="#20A5E6" d="M89.2 72c0-7.2-5.8-13-13-13-3.1 0-5.8 1.1-8.1 2.9-2.2-1.8-5-2.9-8.1-2.9-7.2 0-13 5.8-13 13 0 6.3 4.7 11.2 9 15.2 1 .9 12.5 10.7 12.3 11 6.7-7 20.9-15.4 20.9-26.2"/><path fill="none" stroke="#2E2C4C" stroke-width="5.46" stroke-linecap="round" stroke-linejoin="round" stroke-miterlimit="10" d="M89.2 72c0-7.2-5.8-13-13-13-3.1 0-5.8 1.1-8.1 2.9-2.2-1.8-5-2.9-8.1-2.9-7.2 0-13 5.8-13 13 0 6.3 4.7 11.2 9 15.2 1 .9 12.5 10.7 12.3 11 6.7-7 20.9-15.4 20.9-26.2z"/></svg>