<svg xmlns="http://www.w3.org/2000/svg" width="50.1" height="84.4" viewBox="0 0 50.1 84.4"><g fill="#2E2C4C"><path d="M4 84.4h42.2c2.2 0 4-1.8 4-4V4c0-2.2-1.8-4-4-4H4C1.8 0 0 1.8 0 4v76.5c0 2.2 1.8 3.9 4 3.9M2.6 4c0-.7.6-1.3 1.3-1.3h42.2c.7 0 1.3.6 1.3 1.3v76.5c0 .7-.6 1.3-1.3 1.3H4c-.7 0-1.3-.6-1.3-1.3V4z"/><path d="M6.6 71.2h36.9c.7 0 1.3-.6 1.3-1.3V14.5c0-.7-.6-1.3-1.3-1.3H6.6c-.7 0-1.3.6-1.3 1.3v55.4c0 .7.6 1.3 1.3 1.3m1.3-55.4h34.3v52.8H7.9V15.8zM26.4 73.9c-1.5 0-2.6 1.2-2.6 2.6 0 1.5 1.2 2.6 2.6 2.6 1.5 0 2.6-1.2 2.6-2.6 0-1.4-1.2-2.6-2.6-2.6M19.8 10.6h10.6c.7 0 1.3-.6 1.3-1.3 0-.7-.6-1.3-1.3-1.3H19.8c-.7 0-1.3.6-1.3 1.3 0 .7.6 1.3 1.3 1.3"/></g></svg>