<svg xmlns="http://www.w3.org/2000/svg" width="182.7" height="182.7" viewBox="0 0 182.7 182.7"><path fill="#BCE3F6" d="M91.4 182.7C41 182.7 0 141.7 0 91.4S41 0 91.4 0s91.4 41 91.4 91.4-41.1 91.3-91.4 91.3zm0-150.8c-32.8 0-59.5 26.7-59.5 59.5s26.7 59.5 59.5 59.5 59.5-26.7 59.5-59.5-26.7-59.5-59.5-59.5z"/><path fill="#2E2C4C" d="M120.8 87.3c-13 0-23.5-10.5-23.5-23.5 0-3.5.8-6.8 2.2-9.8-2.6-.6-5.4-.9-8.2-.9-21.1 0-38.2 17.1-38.2 38.2s17.1 38.2 38.2 38.2 38.2-17.1 38.2-38.2c0-1.9-.1-3.8-.4-5.6-2.5 1-5.3 1.6-8.3 1.6z"/></svg>