<svg xmlns="http://www.w3.org/2000/svg" width="66" height="84.4" viewBox="0 0 66 84.4"><g fill="#2E2C4C"><path d="M4 84.4h58c2.2 0 4-1.8 4-4V4c0-2.2-1.8-4-4-4H4C1.8 0 0 1.8 0 4v76.5c0 2.2 1.8 3.9 4 3.9M2.6 4c0-.7.6-1.3 1.3-1.3h58c.7 0 1.3.6 1.3 1.3v76.5c0 .7-.6 1.3-1.3 1.3H4c-.7 0-1.3-.6-1.3-1.3V4z"/><path d="M9.2 71.2h47.5c.7 0 1.3-.6 1.3-1.3V9.2c0-.7-.6-1.3-1.3-1.3H9.2c-.7 0-1.3.6-1.3 1.3v60.7c0 .7.6 1.3 1.3 1.3m1.4-60.6h44.9v58H10.6v-58zM34.3 73.9c-1.5 0-2.6 1.2-2.6 2.6 0 1.5 1.2 2.6 2.6 2.6 1.5 0 2.6-1.2 2.6-2.6 0-1.4-1.1-2.6-2.6-2.6"/></g></svg>