<svg xmlns="http://www.w3.org/2000/svg" width="78.3" height="82" viewBox="0 0 78.3 82"><path fill="#20A5E6" d="M29.8 32.9c0 2.5-2 4.6-4.5 4.6s-4.5-2.1-4.5-4.6 2-4.6 4.5-4.6 4.5 2 4.5 4.6"/><path fill="none" stroke="#2E2C4C" stroke-width="2.7" stroke-miterlimit="10" d="M29.8 32.9c0 2.5-2 4.6-4.5 4.6s-4.5-2.1-4.5-4.6 2-4.6 4.5-4.6 4.5 2 4.5 4.6z"/><path fill="#20A5E6" d="M43.6 32.9c0 2.5-2 4.6-4.5 4.6s-4.5-2.1-4.5-4.6 2-4.6 4.5-4.6c2.5-.1 4.5 2 4.5 4.6"/><path fill="none" stroke="#2E2C4C" stroke-width="2.7" stroke-miterlimit="10" d="M43.6 32.9c0 2.5-2 4.6-4.5 4.6s-4.5-2.1-4.5-4.6 2-4.6 4.5-4.6c2.5-.1 4.5 2 4.5 4.6z"/><g><path fill="#20A5E6" d="M57.4 32.9c0 2.5-2 4.6-4.5 4.6s-4.5-2.1-4.5-4.6 2-4.6 4.5-4.6 4.5 2 4.5 4.6"/><path fill="none" stroke="#2E2C4C" stroke-width="2.7" stroke-miterlimit="10" d="M57.4 32.9c0 2.5-2 4.6-4.5 4.6s-4.5-2.1-4.5-4.6 2-4.6 4.5-4.6 4.5 2 4.5 4.6z"/></g><path fill="none" stroke="#2E2C4C" stroke-width="2.7" stroke-linecap="round" stroke-linejoin="round" stroke-miterlimit="10" d="M18.6 49.3c-9.4 0-17.1 6.5-17.1 14.5 0 5.4 3.4 10 8.5 12.5-.2 1.7-.9 3.7-3 4.3 0 0 6.4.3 10.2-2.3.5 0 1 .1 1.4.1 9.4 0 17.1-6.5 17.1-14.5s-7.6-14.6-17.1-14.6z"/><path fill="none" stroke="#2E2C4C" stroke-width="2.7" stroke-linecap="round" stroke-linejoin="round" stroke-miterlimit="10" d="M35.7 63.2c1.1.1 2.3.1 3.5.1 1.1 0 2.1 0 3.2-.1 8.3 5.7 22.5 5 22.5 5-4.8-1.3-6.4-5.4-6.7-9.1C69.5 53.7 77 43.7 77 32.3c0-17.1-16.9-31-37.8-31S1.4 15.2 1.4 32.3c0 7.3 3.1 14 8.2 19.2"/></svg>