<svg xmlns="http://www.w3.org/2000/svg" width="123.8" height="150" viewBox="0 0 123.8 150"><g fill="none" stroke="#2E2C4C" stroke-width="5.46" stroke-linecap="round" stroke-miterlimit="10"><path d="M61.9 2.7v25.6M2.7 9.3L23 29.5M121.1 9.3l-20.3 20.2"/></g><g fill="none" stroke="#2E2C4C" stroke-width="5.46" stroke-linecap="round" stroke-miterlimit="10"><path d="M61.9 147.2v-25.5M2.7 140.6L23 120.5M121.1 140.6l-20.3-20.1"/></g><path fill="none" stroke="#2E2C4C" stroke-width="5.46" stroke-miterlimit="10" d="M61.9 106.2c23 0 43.1-12.6 53.7-31.2C105 56.4 84.9 43.8 61.9 43.8S18.8 56.4 8.2 75c10.6 18.6 30.7 31.2 53.7 31.2z"/><path fill="#20A5E6" d="M78.4 75c0 9-7.4 16.3-16.5 16.3S45.4 84 45.4 75s7.4-16.3 16.5-16.3S78.4 66 78.4 75"/><path fill="none" stroke="#2E2C4C" stroke-width="5.46" stroke-miterlimit="10" d="M78.4 75c0 9-7.4 16.3-16.5 16.3S45.4 84 45.4 75s7.4-16.3 16.5-16.3S78.4 66 78.4 75z"/></svg>