<svg xmlns="http://www.w3.org/2000/svg" width="325" height="60" viewBox="0 0 325 60"><path fill="#2D2C4C" d="M30.1 60C13.5 60 0 46.5 0 30S13.5 0 30.1 0s30.1 13.5 30.1 30-13.5 30-30.1 30zm0-49.5c-10.8 0-19.6 8.8-19.6 19.5s8.8 19.5 19.6 19.5S49.7 40.8 49.7 30s-8.8-19.5-19.6-19.5z"/><ellipse fill="#BBE2F5" cx="30.1" cy="29.3" rx="12.6" ry="12.6"/><g><path fill="#2E2C4C" d="M209.6 41.7c1.2-4.5 2.4-8.9 3.6-13.3.5-1.8.9-3.7 1.6-5.5 1-2.9 3.7-4.2 6.7-3.3 3.1.9 4.7 3.4 4 6.3-1.8 6.8-3.6 13.6-5.5 20.4-.4 1.4-1.2 2.8-2 4-1.5 2.3-3.8 3.2-6.4 3.3-1.2.1-2.5 0-3.7-.2-2.4-.5-3.9-2.3-5-4.4-1.5-2.9-2.4-6.1-3.1-9.3-.1-.3-.2-.7-.3-1.2-.3 1.2-.5 2.2-.8 3.2-.9 2.6-1.7 5.2-2.9 7.7-3 6.3-12.2 5.2-15.1.2-1.6-2.8-2.5-5.8-3.4-8.8-1.3-4.7-2.5-9.4-3.8-14.1-.7-2.7 0-4.9 1.8-6.2 2.2-1.5 4.9-1.6 6.9-.2 1.2.9 1.8 2.1 2.1 3.5 1.5 5.8 3.1 11.5 4.6 17.3 0 .2.1.3.3.6.4-1.7.8-3.2 1.2-4.7 1.1-4.5 2.2-8.9 3.4-13.4.7-2.6 2.7-4.1 5.5-4.1 2.7 0 4.8 1.5 5.4 4.1 1.5 5.8 2.9 11.7 4.4 17.5.2.2.3.3.5.6zM105.6 31.5c1.2.8 2.5 1.9 3.3 3.4 1.8 3.4 1.5 6.9.1 10.2-1.9 4.4-5.5 6.9-10.2 7.3-4.1.4-8.1.2-12.2.2h-4.9c-3.8 0-6-2.2-6-5.9v-30c0-3.7 2.2-5.9 5.9-5.9 5.1 0 10.1-.1 15.2 0 4.7.1 8.6 2 11 6.1 2 3.4 2.6 7.2.7 10.9-.7 1.4-1.9 2.5-2.9 3.7zM87 42.5h6.3c1 0 1.9 0 2.9-.2 1.6-.3 2.5-1.5 2.5-3.3-.1-1.6-1-2.8-2.7-2.9-3-.1-6 0-9 0v6.4zm.1-21.6v6c2.8 0 5.5.1 8.3 0 1.9-.1 2.9-1.3 2.9-3 0-1.6-1.2-2.8-3-2.9-2.8-.1-5.5-.1-8.2-.1zM244.3 19.1c9.7 0 17.4 7.6 17.4 17.1-.1 9.6-7.7 17.1-17.4 17.1s-17.4-7.6-17.5-17.1c0-9.5 7.7-17.1 17.5-17.1zm-.1 11c-3.2 0-5.9 2.7-5.9 6.1 0 3.3 2.7 6.2 5.9 6.1 3.5-.1 5.8-2.9 5.8-6.1.1-3.4-2.5-6.1-5.8-6.1zM308.6 44.4c-2.1 2.2-4.1 4.3-6.2 6.5-1.1 1.1-2.3 2-3.9 2.1-2.5.2-4.3-1.1-5.5-3.1-1.2-1.9-1.1-4.1.3-5.8 2-2.4 4.2-4.6 6.3-6.9.4-.4.8-.7 1.2-1.1-2.3-2.4-4.4-4.7-6.6-7-1.2-1.3-2.2-2.7-2-4.5.2-2.5 1.7-4.2 3.9-5.2 2.1-.9 4-.4 5.6 1.1 1.9 1.8 3.6 3.7 5.4 5.6.5.5 1 1 1.5 1.6l4.8-5.1c1-1 2-2.1 3.2-2.9 2.2-1.4 5-.8 6.8 1.3 2 2.3 2.2 4.9.4 7-2.2 2.5-4.5 4.9-6.8 7.3l-.6.6c1.4 1.4 2.7 2.8 4 4.2.9 1 1.9 2 2.8 3 3 3.2 1.7 6.9-1.4 8.9-2.1 1.3-4.4 1.1-6.2-.6-1.8-1.7-3.5-3.6-5.2-5.4-.6-.3-1.2-.9-1.8-1.6zM276.1 22c1.8-1.7 3.9-2.7 6.3-2.9 2.3-.3 4.6-.1 6.1 2 1.3 1.8 1.5 3.8.7 5.8-.8 1.9-2.3 2.9-4.4 3.1-1.2.1-2.4 0-3.5.3-2.7.7-4.3 3-4.3 6.2V47c-.1 4-3.1 6.4-7.1 5.5-2.7-.6-4.2-2.6-4.2-5.8V25.8c0-1.8.3-3.4 1.7-4.7 1.9-1.9 6.4-2.2 8.7.9zM124.9 22c1.8-1.6 3.9-2.7 6.3-2.9 2.4-.3 4.7-.1 6.2 2.1 1.3 1.8 1.4 3.8.6 5.8-.8 1.9-2.3 2.9-4.4 3.1-.7.1-1.5.1-2.2.1-2.9.1-5.3 2.2-5.6 5.1-.2 2.1-.1 4.2-.2 6.3v5.8c-.1 4-3.4 5.9-6.6 5.3-3-.5-4.7-2.5-4.7-5.8V26c0-1.8.3-3.4 1.7-4.7 2.1-2.1 6.6-2.4 8.9.7zM169.6 31.9v15.5c0 3.3-2.4 5.5-5.7 5.4-2.8-.1-4.7-1.5-5.4-4.2-.2-.7-.2-1.4-.2-2.2V16.7c0-2.3.7-4.3 3-5.4 2.2-1 4.4-.9 6.3.6 1.3 1 1.9 2.3 1.9 3.9.1 5.4.1 10.7.1 16.1zM153.5 36.2v10.7c0 2.1-.7 3.9-2.7 5-4.2 2.3-8.6-.4-8.6-5.2V25.9c0-1.9.3-3.7 2-5 1.9-1.5 4.1-1.6 6.3-.7 2.1.9 3 2.6 3.1 4.7-.1 3.8-.1 7.5-.1 11.3zM142.2 11.9c0-3.1 2.4-5.6 5.6-5.6 3.2 0 5.7 2.4 5.7 5.6 0 3.1-2.5 5.7-5.6 5.7-3.2-.1-5.7-2.6-5.7-5.7z"/></g></svg>