<?xml version="1.0" encoding="utf-8"?>
<!-- Generator: Adobe Illustrator 18.0.0, SVG Export Plug-In . SVG Version: 6.00 Build 0)  -->
<!DOCTYPE svg PUBLIC "-//W3C//DTD SVG 1.1//EN" "http://www.w3.org/Graphics/SVG/1.1/DTD/svg11.dtd">
<svg version="1.1" xmlns="http://www.w3.org/2000/svg" xmlns:xlink="http://www.w3.org/1999/xlink" x="0px" y="0px" width="84px"
	 height="84px" viewBox="0 0 84 84" enable-background="new 0 0 84 84" xml:space="preserve">
<g id="Capa_2" display="none">
</g>
<g id="Capa_1">
	<path fill="#FCD750" d="M35.9,58.3c-4.4,0-7.5-2.7-7.5-6.1c0-3.2,3.8-5.9,8.2-5.9c1,0,1.9,0.2,2.8,0.4c2.3,1.6,4,2.5,4.6,4.5
		c0.1,0.4,0.1,0.8,0.1,1.2C44.2,55.8,42.1,58.3,35.9,58.3 M37.1,39c-2.9-0.1-5.7-3.2-6.2-7.1c-0.5-3.8,1.4-6.8,4.4-6.7
		c2.9,0.1,5.7,3.1,6.2,7C42,36,40,39.1,37.1,39 M43.1,44.6c-1-0.7-2.9-2.4-2.9-3.5c0-1.2,0.3-1.8,2.1-3.2c1.8-1.4,3.1-3.5,3.1-5.9
		c0-2.8-1.2-5.6-3.6-6.5h3.5l2.5-1.8H36.7c-5.1,0-9.8,3.8-9.8,8.3c0,4.6,3.4,8.2,8.6,8.2c0.4,0,0.7,0,1,0c-0.3,0.6-0.6,1.3-0.6,2.1
		c0,1.2,0.7,2.3,1.5,3.1c-0.6,0-1.3,0-1.9,0c-6.3,0-11.1,3.9-11.1,8.1c0,4.1,5.3,6.6,11.5,6.6c7.2,0,11.1-4.1,11.1-8.1
		C47.1,48.7,46.2,46.8,43.1,44.6 M59.5,39.4h-4.4v-4.5h-3.5v4.4h-4.4v3.5h4.4v4.4h3.5v-4.4h4.4V39.4z"/>
	<circle fill="none" stroke="#FCD750" stroke-width="2.7" stroke-miterlimit="10" cx="42" cy="42" r="40.7"/>
</g>
</svg>
