<svg xmlns="http://www.w3.org/2000/svg" width="102.9" height="84.4" viewBox="0 0 102.9 84.4"><g fill="#2E2C4C"><path d="M4 66h46.2v4c0 .7.6 1.3 1.3 1.3.7 0 1.3-.6 1.3-1.3v-4H99c2.2 0 4-1.8 4-4V4c0-2.2-1.8-4-4-4H4C1.8 0 0 1.8 0 4v58c0 2.2 1.8 4 4 4M2.6 4c0-.7.6-1.3 1.3-1.3h95c.7 0 1.3.6 1.3 1.3v58c0 .7-.6 1.3-1.3 1.3H4c-.7 0-1.3-.6-1.3-1.3V4z"/><path d="M9.2 58h84.4c.7 0 1.3-.6 1.3-1.3V9.2c0-.7-.6-1.3-1.3-1.3H9.2c-.7 0-1.3.6-1.3 1.3v47.5c0 .8.6 1.3 1.3 1.3m1.4-47.4h81.8v44.9H10.6V10.6zM36.9 73.9c-3 0-5.3 2.3-5.3 5.3v4c0 .7.6 1.3 1.3 1.3h36.9c.7 0 1.3-.6 1.3-1.3v-3.8c0-3.1-2.3-5.5-5.3-5.5H36.9zm31.7 5.4v2.4H34.3v-2.6c0-1.6 1.1-2.6 2.6-2.6h29c1.6 0 2.7 1.2 2.7 2.8"/></g></svg>