<?xml version="1.0" encoding="utf-8"?>
<!-- Generator: Adobe Illustrator 18.0.0, SVG Export Plug-In . SVG Version: 6.00 Build 0)  -->
<!DOCTYPE svg PUBLIC "-//W3C//DTD SVG 1.1//EN" "http://www.w3.org/Graphics/SVG/1.1/DTD/svg11.dtd">
<svg version="1.1" xmlns="http://www.w3.org/2000/svg" xmlns:xlink="http://www.w3.org/1999/xlink" x="0px" y="0px" width="84px"
	 height="84px" viewBox="0 0 84 84" enable-background="new 0 0 84 84" xml:space="preserve">
<g id="Capa_2" display="none">
</g>
<g id="Capa_1">
	<path fill="#FCD750" d="M60,32.8c-1.3,0.6-2.7,1-4.2,1.2c1.5-0.9,2.7-2.4,3.2-4.1c-1.4,0.8-3,1.5-4.7,1.8c-1.3-1.4-3.3-2.3-5.4-2.3
		c-4.1,0-7.4,3.3-7.4,7.4c0,0.6,0.1,1.1,0.2,1.7c-6.1-0.3-11.6-3.2-15.2-7.7c-0.6,1.1-1,2.4-1,3.7c0,2.6,1.3,4.8,3.3,6.1
		c-1.2,0-2.3-0.4-3.3-0.9v0.1c0,3.6,2.5,6.6,5.9,7.2c-0.6,0.2-1.3,0.3-1.9,0.3c-0.5,0-0.9,0-1.4-0.1c0.9,2.9,3.7,5.1,6.9,5.1
		c-2.5,2-5.7,3.2-9.2,3.2c-0.6,0-1.2,0-1.8-0.1c3.3,2.1,7.2,3.3,11.3,3.3c13.6,0,21-11.3,21-21c0-0.3,0-0.6,0-1
		C57.8,35.6,59,34.3,60,32.8"/>
	<circle fill="none" stroke="#FCD750" stroke-width="2.7" stroke-miterlimit="10" cx="42" cy="42" r="40.7"/>
</g>
</svg>
